<?xml version="1.0" encoding="UTF-8" standalone="no"?>
<svg
   xmlns:ns="http://www.w3.org/1999/02/22-rdf-syntax-ns"
   xmlns:dc="http://purl.org/dc/elements/1.1/"
   xmlns:cc="http://creativecommons.org/ns#"
   xmlns:rdf="http://www.w3.org/1999/02/22-rdf-syntax-ns#"
   xmlns:svg="http://www.w3.org/2000/svg"
   xmlns="http://www.w3.org/2000/svg"
   xmlns:sodipodi="http://sodipodi.sourceforge.net/DTD/sodipodi-0.dtd"
   xmlns:inkscape="http://www.inkscape.org/namespaces/inkscape"
   version="1.1"
   width="740"
   height="740"
   id="svg"
   inkscape:version="0.48.4 r9939"
   sodipodi:docname="Magnet_icon.svg"
   inkscape:export-filename="C:\Data Files\Open Source\thing-tracker-network\thing-tracker-network\thingmaker\images\magnet.png"
   inkscape:export-xdpi="1.945946"
   inkscape:export-ydpi="1.945946">
  <defs
     id="defs3011" />
  <sodipodi:namedview
     pagecolor="#ffffff"
     bordercolor="#666666"
     borderopacity="1"
     objecttolerance="10"
     gridtolerance="10"
     guidetolerance="10"
     inkscape:pageopacity="0"
     inkscape:pageshadow="2"
     inkscape:window-width="640"
     inkscape:window-height="480"
     id="namedview3009"
     showgrid="false"
     inkscape:zoom="0.31891892"
     inkscape:cx="370"
     inkscape:cy="370"
     inkscape:window-x="0"
     inkscape:window-y="0"
     inkscape:window-maximized="0"
     inkscape:current-layer="svg" />
  <title
     id="title3000">Magnet URI icon</title>
  <metadata
     id="metadata">
    <ns:RDF>
      <dc:title>Magnet URI icon</dc:title>
      <dc:creator>
        <dc:title>Daniel Aleksandersen</dc:title>
      </dc:creator>
      <dc:source>http://web.aeyoun.priv.no</dc:source>
      <dc:license
         ns:resource="http://opensource.org/licenses/BSD-2-Clause" />
      <dc:type
         ns:resource="http://purl.org/dc/dcmitype/StillImage" />
      <dc:format>image/svg+xml</dc:format>
    </ns:RDF>
    <rdf:RDF>
      <cc:Work
         rdf:about="">
        <dc:format>image/svg+xml</dc:format>
        <dc:type
           rdf:resource="http://purl.org/dc/dcmitype/StillImage" />
        <dc:title>Magnet URI icon</dc:title>
      </cc:Work>
    </rdf:RDF>
  </metadata>
  <g
     transform="translate(0,0)"
     id="magneticon"
     style="display:inline">
    <path
       d="M 160,58 C 130,58 95,58 58,58 L 58,210 C 110,210 170,210 270,210 L 270,58 C 230,58 200,58 160,58 z"
       id="path3093"
       style="fill:#dedede;fill-opacity:1" />
    <path
       d="M 210,640 C 170,640 140,640 110,640 110,620 110,600 110,580 89,580 74,580 58,580 58,450 58,330 58,210 L 210,210 C 210,300 210,390 210,480 230,480 200,480 270,480 270,500 270,520 270,540 340,540 410,540 480,540 480,520 480,500 480,480 500,480 520,480 540,480 540,390 540,300 540,210 590,210 610,210 690,210 690,320 690,470 690,580 670,580 660,580 640,580 640,600 640,620 640,640 610,640 570,640 540,640 540,650 540,670 540,690 430,690 320,690 210,690 210,670 210,660 210,640 z"
       id="path3087"
       style="fill:#ff0000;fill-opacity:1" />
    <path
       d="M 0,0 C 0,210 0,430 0,640 19,640 39,640 58,640 58,660 58,670 58,690 93,690 130,690 160,690 160,710 160,730 160,740 300,740 440,740 580,740 580,730 580,710 580,690 620,690 650,690 690,690 690,670 690,660 690,640 710,640 730,640 740,640 740,430 740,210 740,0 640,0 530,0 430,0 430,89 430,180 430,270 440,270 470,270 480,270 480,330 480,370 480,430 470,430 440,430 430,430 430,440 430,460 430,480 390,480 350,480 310,480 310,470 310,440 310,430 300,430 280,430 270,430 270,370 270,330 270,270 280,270 300,270 320,270 320,180 320,89 320,0 210,0 100,0 0,0 z M 58,58 C 58,58 200,58 270,58 270,110 270,160 270,210 250,210 230,210 210,210 210,300 210,390 210,480 230,480 250,480 270,480 270,500 270,520 270,540 340,540 410,540 480,540 480,520 480,500 480,480 500,480 520,480 540,480 540,390 540,300 540,210 520,210 500,210 480,210 480,160 480,110 480,58 550,58 620,58 690,58 690,230 690,410 690,580 670,580 660,580 640,580 640,600 640,620 640,640 610,640 570,640 540,640 540,660 540,670 540,690 430,690 320,690 210,690 210,670 210,660 210,640 170,640 140,640 110,640 110,620 110,600 110,580 89,580 74,580 58,580 58,410 58,230 58,58 z"
       id="path3081"
       style="fill:#010000" />
    <path
       d="M 580,58 C 550,58 510,58 480,58 L 480,210 C 500,210 590,210 690,210 L 690,58 C 650,58 610,58 580,58 z"
       id="path3093-0"
       style="fill:#dedede;fill-opacity:1" />
    <path
       d="M 580,58 C 550,58 510,58 480,58 L 480,210 C 500,210 590,210 690,210 L 690,58 C 650,58 610,58 580,58 z"
       id="path3788"
       style="fill:#dedede;fill-opacity:1" />
  </g>
</svg>
